#!OML:ASF Y:\EmotionMaleHayes\Project 1\Capture day 1\Session 1\Male1.ASF
:FULLY-SPECIFIED
:DEGREES
104
root -22.5719 16.8799 4.9241 -20.7599 68.2801 -49.9626
lowerback 24.7477 9.71304 10.3755
upperback 6.70558 15.4758 2.0347
thorax -3.81038 7.68764 -7.35717
lowerneck -25.136 0.40306 7.49899
upperneck 22.6757 -1.38367 -3.02502
head 11.4823 -0.322461 -2.58822
rclavicle 2.06736e-014 3.02153e-014
rhumerus 38.0561 -1.6909 -37.0098
rradius 81.4569
rwrist -20.6638
rhand -26.3548 -29.6644
rfingers 7.12502
rthumb 0.203071 -59.6441
lclavicle 2.06736e-014 3.02153e-014
lhumerus -65.0688 26.6828 2.97649
lradius 23.5376
lwrist -17.962
lhand 19.7815 -13.4267
lfingers 7.12502
lthumb 44.3314 10.3315
rfemur 2.59328 -8.94572 27.8738
rtibia 12.4501
rfoot -4.91073 3.67693
rtoes 11.6291
lfemur -64.1357 15.7945 -22.8902
ltibia 52.7258
lfoot -14.3615 -9.08514
ltoes -13.0212
105
root -22.386 16.8213 4.96372 -21.5736 67.1705 -51.0498
lowerback 24.8487 9.96812 10.5361
upperback 7.00559 15.8777 2.47425
thorax -3.54494 7.91185 -7.02992
lowerneck -25.5169 0.629624 7.76361
upperneck 22.3833 -1.08735 -3.49523
head 11.4538 -0.243838 -2.75768
rclavicle 2.38542e-014 -4.29375e-014
rhumerus 38.9203 0.353915 -36.9321
rradius 80.183
rwrist -20.1207
rhand -26.1978 -29.3363
rfingers 7.12502
rthumb 0.3547 -59.3157
lclavicle 2.38542e-014 -4.29375e-014
lhumerus -65.3621 26.78 1.10745
lradius 23.4732
lwrist -17.4728
lhand 20.2779 -12.2803
lfingers 7.12502
lthumb 44.7939 11.3
rfemur 2.65256 -8.44364 27.4011
rtibia 14.3502
rfoot -7.76761 -0.219455
rtoes 9.55184
lfemur -62.906 14.7996 -20.794
ltibia 50.9078
lfoot -14.4052 -5.71537
ltoes -11.7764
106
root -22.1896 16.7384 5.00375 -21.5955 66.1603 -51.1038
lowerback 24.9536 10.2475 10.3498
upperback 7.32743 16.2172 2.84492
thorax -3.34638 8.09913 -6.59815
lowerneck -25.8291 0.811942 7.87146
upperneck 22.17 -0.837203 -3.77346
head 11.4443 -0.17021 -2.83755
rclavicle -1.27222e-014 -5.08889e-014
rhumerus 39.5941 2.6905 -37.143
rradius 78.8461
rwrist -19.3255
rhand -25.8789 -29.0637
rfingers 7.12502
rthumb 0.662675 -59.0424
lclavicle -1.27222e-014 -5.08889e-014
lhumerus -65.5649 26.5407 -0.608617
lradius 23.456
lwrist -16.7935
lhand 20.6881 -11.0143
lfingers 7.12502
lthumb 45.1755 12.4158
rfemur 3.06698 -8.20496 26.2205
rtibia 15.9109
rfoot -9.74072 -3.36676
rtoes 8.33557
lfemur -61.3115 13.9755 -19.2869
ltibia 49.1384
lfoot -14.0237 -2.3182
ltoes -7.3443
107
root -21.9909 16.6341 5.04145 -21.5052 65.2021 -50.9677
lowerback 24.5469 10.4765 10.0432
upperback 7.93328 16.412 3.37296
thorax -2.69558 8.26255 -5.77552
lowerneck -25.9209 0.99324 7.67794
upperneck 21.773 -0.454587 -4.04711
head 11.3348 -0.0662161 -2.83748
rclavicle -6.83819e-014 9.54166e-015
rhumerus 40.6902 4.98672 -37.0184
rradius 77.3022
rwrist -18.9106
rhand -25.5055 -28.7093
rfingers 7.12502
rthumb 1.02337 -58.6866
lclavicle -6.83819e-014 9.54166e-015
lhumerus -66.2859 26.7934 -2.70658
lradius 23.4509
lwrist -16.7301
lhand 20.9168 -10.0983
lfingers 7.12502
lthumb 45.3881 13.2467
rfemur 3.44028 -8.17711 24.7932
rtibia 17.5212
rfoot -10.961 -6.05224
rtoes 7.97422
lfemur -59.793 13.5918 -18.581
ltibia 48.1426
lfoot -14.0047 1.08027
ltoes 9.97431
108
root -21.7965 16.5111 5.07709 -21.7813 64.1778 -51.1864
lowerback 24.4259 10.6739 9.97513
upperback 8.27918 16.6641 3.86545
thorax -2.39207 8.41437 -5.21471
lowerneck -25.8818 1.06349 7.55776
upperneck 21.6646 -0.231488 -4.3324
head 11.3002 -0.0177865 -2.8849
rclavicle -8.42847e-014 5.08889e-014
rhumerus 41.1869 7.53334 -37.2177
rradius 75.8081
rwrist -18.3306
rhand -24.7395 -28.6766
rfingers 7.12502
rthumb 1.76311 -58.6491
lclavicle -8.42847e-014 5.08889e-014
lhumerus -66.6957 26.6173 -4.60993
lradius 23.5875
lwrist -16.4842
lhand 20.7074 -9.23047
lfingers 7.12502
lthumb 45.1935 14.1925
rfemur 3.74258 -8.32758 23.4369
rtibia 19.1548
rfoot -11.5049 -8.16916
rtoes 6.46136
lfemur -58.4268 13.4478 -18.0032
ltibia 48.0381
lfoot -18.6595 2.58975
ltoes 14.6878
